<svg width="888" height="299" viewBox="0 0 888 299" fill="none" xmlns="http://www.w3.org/2000/svg">
<path d="M224.701 258.001V99.9666H254.911V114.818H255.603C263.213 104.375 274.282 96.7178 290.424 96.7178C321.786 96.7178 341.849 122.476 341.849 159.606C341.849 198.129 321.095 222.495 290.655 222.495C274.051 222.495 263.213 215.766 256.525 205.555H256.064V258.001H224.701ZM283.967 196.272C299.879 196.272 310.025 183.045 310.025 160.535C310.025 138.025 302.185 122.244 282.814 122.244C263.213 122.244 255.372 139.185 255.372 160.535C255.372 182.116 265.288 196.272 283.967 196.272Z" fill="url(#paint0_linear_610_1080)"/>
<path d="M399.797 222.495C365.436 222.495 346.296 205.787 344.451 180.492H373.508C375.583 194.184 385.268 200.217 399.335 200.217C413.172 200.217 421.012 194.88 421.012 186.526C421.012 175.155 406.023 173.994 389.881 170.745C368.665 166.568 347.91 160.767 347.91 134.776C347.91 109.017 369.126 96.7178 396.107 96.7178C427.239 96.7178 444.534 112.266 446.84 136.168H418.476C417.092 123.405 409.021 118.763 395.646 118.763C383.424 118.763 375.352 123.405 375.352 131.991C375.352 142.202 391.034 143.13 407.868 146.611C427.7 150.788 449.607 156.357 449.607 184.205C449.607 208.107 429.314 222.495 399.797 222.495Z" fill="url(#paint1_linear_610_1080)"/>
<path d="M459.145 219.014V99.9664H490.508V219.014H459.145ZM459.145 81.4014V53.0898H490.508V81.4014H459.145Z" fill="url(#paint2_linear_610_1080)"/>
<path d="M506.564 219.014V53.0898H537.927V219.014H506.564Z" fill="url(#paint3_linear_610_1080)"/>
<path d="M609.997 222.495C573.331 222.495 548.195 195.112 548.195 159.606C548.195 124.101 573.331 96.7178 609.997 96.7178C646.663 96.7178 671.799 124.101 671.799 159.606C671.799 195.112 646.663 222.495 609.997 222.495ZM609.997 198.361C629.137 198.361 639.975 182.813 639.975 159.606C639.975 136.4 629.137 120.62 609.997 120.62C590.626 120.62 580.018 136.4 580.018 159.606C580.018 182.813 590.626 198.361 609.997 198.361Z" fill="url(#paint4_linear_610_1080)"/>
<path d="M712.439 99.9666V116.211H713.131C721.202 103.447 732.04 96.7178 748.183 96.7178C772.627 96.7178 789 115.282 789 141.273V219.014H757.638V145.915C757.638 133.151 750.258 124.101 737.114 124.101C723.277 124.101 713.131 135.24 713.131 151.484V219.014H681.768V99.9666H712.439Z" fill="url(#paint5_linear_610_1080)"/>
<path d="M163.402 80.2399C157.252 80.2399 151.487 81.1682 146.106 83.0247C140.879 84.7265 136.267 87.3565 132.27 90.9148C128.427 94.3184 125.352 98.5729 123.046 103.678C120.74 108.784 119.356 114.585 118.895 121.083H190.152V149.859H118.664C119.125 156.511 120.432 162.467 122.585 167.728C124.737 172.988 127.658 177.474 131.348 181.187C135.191 184.746 139.803 187.453 145.184 189.309C150.565 191.166 156.791 192.094 163.863 192.094C171.242 192.094 178.622 191.321 186.001 189.774C193.534 188.226 201.682 186.061 210.445 183.276V212.748C202.605 215.687 194.918 217.853 187.385 219.245C179.852 220.638 171.319 221.334 161.787 221.334C143.493 221.334 128.427 217.853 116.589 210.891C104.905 203.775 96.2187 193.873 90.5304 181.187C84.8421 168.346 81.998 153.417 81.998 136.399C81.998 123.868 83.766 112.419 87.3019 102.054C90.9916 91.5336 96.3724 82.4832 103.444 74.9025C110.516 67.3217 119.202 61.4428 129.503 57.2657C139.803 53.0886 151.641 51 165.016 51C174.855 51 183.926 52.083 192.227 54.2489C200.529 56.2601 208.677 59.0448 216.672 62.6031L204.219 91.1469C197.454 88.2074 190.921 85.6547 184.617 83.4888C178.468 81.3229 171.396 80.2399 163.402 80.2399Z" fill="url(#paint6_linear_610_1080)"/>
<defs>
<linearGradient id="paint0_linear_610_1080" x1="283.275" y1="96.7178" x2="283.275" y2="258.001" gradientUnits="userSpaceOnUse">
<stop stop-color="#4A7DFF"/>
<stop offset="1" stop-color="#3354FF"/>
</linearGradient>
<linearGradient id="paint1_linear_610_1080" x1="397.029" y1="96.7178" x2="397.029" y2="222.495" gradientUnits="userSpaceOnUse">
<stop stop-color="#4A7DFF"/>
<stop offset="1" stop-color="#3354FF"/>
</linearGradient>
<linearGradient id="paint2_linear_610_1080" x1="474.826" y1="53.0898" x2="474.826" y2="219.014" gradientUnits="userSpaceOnUse">
<stop stop-color="#4A7DFF"/>
<stop offset="1" stop-color="#3354FF"/>
</linearGradient>
<linearGradient id="paint3_linear_610_1080" x1="522.246" y1="53.0898" x2="522.246" y2="219.014" gradientUnits="userSpaceOnUse">
<stop stop-color="#4A7DFF"/>
<stop offset="1" stop-color="#3354FF"/>
</linearGradient>
<linearGradient id="paint4_linear_610_1080" x1="609.997" y1="96.7178" x2="609.997" y2="222.495" gradientUnits="userSpaceOnUse">
<stop stop-color="#4A7DFF"/>
<stop offset="1" stop-color="#3354FF"/>
</linearGradient>
<linearGradient id="paint5_linear_610_1080" x1="735.384" y1="96.7178" x2="735.384" y2="219.014" gradientUnits="userSpaceOnUse">
<stop stop-color="#4A7DFF"/>
<stop offset="1" stop-color="#3354FF"/>
</linearGradient>
<linearGradient id="paint6_linear_610_1080" x1="149.335" y1="51" x2="149.335" y2="221.334" gradientUnits="userSpaceOnUse">
<stop stop-color="#4A7DFF"/>
<stop offset="1" stop-color="#3354FF"/>
</linearGradient>
</defs>
</svg>
